<svg width="126" height="40" viewBox="0 0 126 40" fill="none" xmlns="http://www.w3.org/2000/svg">
<path d="M24.68 3.68C24.5733 5.04 24.4933 6.34667 24.44 7.6C24.4133 8.85334 24.4 9.81334 24.4 10.48C24.4 11.0667 24.4133 11.6267 24.44 12.16C24.4667 12.6933 24.4933 13.1467 24.52 13.52H23.6C23.1733 11.28 22.6267 9.50667 21.96 8.2C21.32 6.89334 20.5467 5.97334 19.64 5.44C18.7333 4.88 17.6667 4.6 16.44 4.6H15.52V27.44C15.52 28.5067 15.6267 29.3067 15.84 29.84C16.08 30.3733 16.5067 30.7333 17.12 30.92C17.7333 31.08 18.6267 31.1733 19.8 31.2V32C18.9733 31.9733 17.8667 31.9467 16.48 31.92C15.12 31.8933 13.6933 31.88 12.2 31.88C10.7333 31.88 9.34667 31.8933 8.04 31.92C6.73333 31.9467 5.68 31.9733 4.88 32V31.2C6.08 31.1733 6.98667 31.08 7.6 30.92C8.21333 30.7333 8.62667 30.3733 8.84 29.84C9.05333 29.3067 9.16 28.5067 9.16 27.44V4.6H8.28C7.05333 4.6 5.98667 4.88 5.08 5.44C4.17333 5.97334 3.4 6.89334 2.76 8.2C2.12 9.48 1.56 11.2533 1.08 13.52H0.16C0.213333 13.1467 0.24 12.6933 0.24 12.16C0.266667 11.6267 0.28 11.0667 0.28 10.48C0.28 9.81334 0.253333 8.85334 0.2 7.6C0.173333 6.34667 0.106667 5.04 0 3.68C1.22667 3.70667 2.56 3.73334 4 3.76C5.46667 3.78667 6.93333 3.8 8.4 3.8C9.86667 3.8 11.1867 3.8 12.36 3.8C13.56 3.8 14.88 3.8 16.32 3.8C17.7867 3.8 19.2533 3.78667 20.72 3.76C22.1867 3.73334 23.5067 3.70667 24.68 3.68Z" fill="black"/>
<path d="M34.5644 0.720001V14.48C35.231 13.0933 36.1244 12.1333 37.2444 11.6C38.391 11.04 39.671 10.76 41.0844 10.76C42.231 10.76 43.151 10.9067 43.8444 11.2C44.5377 11.4667 45.0844 11.84 45.4844 12.32C45.9377 12.8267 46.2577 13.48 46.4444 14.28C46.6577 15.08 46.7644 16.16 46.7644 17.52V28.28C46.7644 29.4 46.951 30.16 47.3244 30.56C47.7244 30.96 48.391 31.16 49.3244 31.16V32C48.8177 31.9733 48.0444 31.9467 47.0044 31.92C45.991 31.8667 45.0044 31.84 44.0444 31.84C43.0044 31.84 41.991 31.8667 41.0044 31.92C40.0444 31.9467 39.3244 31.9733 38.8444 32V31.16C39.6444 31.16 40.2044 30.96 40.5244 30.56C40.8444 30.16 41.0044 29.4 41.0044 28.28V15.84C41.0044 15.1733 40.9377 14.6 40.8044 14.12C40.671 13.6133 40.4177 13.2267 40.0444 12.96C39.6977 12.6667 39.191 12.52 38.5244 12.52C37.8044 12.52 37.1377 12.72 36.5244 13.12C35.9377 13.4933 35.4577 14.0267 35.0844 14.72C34.7377 15.4133 34.5644 16.2133 34.5644 17.12V28.28C34.5644 29.4 34.7244 30.16 35.0444 30.56C35.3644 30.96 35.9244 31.16 36.7244 31.16V32C36.2444 31.9733 35.5377 31.9467 34.6044 31.92C33.671 31.8667 32.7244 31.84 31.7644 31.84C30.7244 31.84 29.671 31.8667 28.6044 31.92C27.5644 31.9467 26.7777 31.9733 26.2444 32V31.16C27.1777 31.16 27.831 30.96 28.2044 30.56C28.6044 30.16 28.8044 29.4 28.8044 28.28V5.52C28.8044 4.32 28.6177 3.44 28.2444 2.88C27.8977 2.29333 27.231 2 26.2444 2V1.16C27.0977 1.24 27.9244 1.28 28.7244 1.28C29.8177 1.28 30.8577 1.24 31.8444 1.16C32.831 1.05334 33.7377 0.906669 34.5644 0.720001Z" fill="black"/>
<path d="M55.9803 1C57.1003 1 57.9803 1.28 58.6203 1.84C59.287 2.37334 59.6203 3.12 59.6203 4.08C59.6203 5.04 59.287 5.8 58.6203 6.36C57.9803 6.89334 57.1003 7.16 55.9803 7.16C54.8603 7.16 53.967 6.89334 53.3003 6.36C52.6603 5.8 52.3403 5.04 52.3403 4.08C52.3403 3.12 52.6603 2.37334 53.3003 1.84C53.967 1.28 54.8603 1 55.9803 1ZM59.1003 10.88V28.28C59.1003 29.4 59.287 30.16 59.6603 30.56C60.0603 30.96 60.727 31.16 61.6603 31.16V32C61.1803 31.9733 60.4336 31.9467 59.4203 31.92C58.407 31.8667 57.3803 31.84 56.3403 31.84C55.3003 31.84 54.247 31.8667 53.1803 31.92C52.1136 31.9467 51.3136 31.9733 50.7803 32V31.16C51.7136 31.16 52.367 30.96 52.7403 30.56C53.1403 30.16 53.3403 29.4 53.3403 28.28V15.68C53.3403 14.48 53.1536 13.6 52.7803 13.04C52.4336 12.4533 51.767 12.16 50.7803 12.16V11.32C51.6336 11.4 52.4603 11.44 53.2603 11.44C54.3803 11.44 55.4203 11.4 56.3803 11.32C57.367 11.2133 58.2736 11.0667 59.1003 10.88Z" fill="black"/>
<path d="M68.9175 32.28C67.7175 32.28 66.7175 32.0533 65.9175 31.6C65.1175 31.1467 64.5308 30.5467 64.1575 29.8C63.7842 29.0267 63.5975 28.1867 63.5975 27.28C63.5975 26.1333 63.8508 25.2 64.3575 24.48C64.8908 23.76 65.5708 23.1733 66.3975 22.72C67.2242 22.2667 68.0908 21.8933 68.9975 21.6C69.9308 21.3067 70.8108 21.0267 71.6375 20.76C72.4908 20.4667 73.1708 20.1333 73.6775 19.76C74.2108 19.36 74.4775 18.8533 74.4775 18.24V15.12C74.4775 14.4267 74.3575 13.8133 74.1175 13.28C73.9042 12.72 73.5575 12.2933 73.0775 12C72.6242 11.7067 72.0242 11.56 71.2775 11.56C70.7442 11.56 70.2108 11.64 69.6775 11.8C69.1442 11.9333 68.7042 12.1733 68.3575 12.52C69.1042 12.7867 69.6775 13.2 70.0775 13.76C70.5042 14.2933 70.7175 14.9067 70.7175 15.6C70.7175 16.5067 70.3975 17.2267 69.7575 17.76C69.1442 18.2933 68.4108 18.56 67.5575 18.56C66.5975 18.56 65.8642 18.2667 65.3575 17.68C64.8775 17.0667 64.6375 16.3333 64.6375 15.48C64.6375 14.7067 64.8242 14.0667 65.1975 13.56C65.5975 13.0533 66.1442 12.5733 66.8375 12.12C67.5842 11.6933 68.4775 11.36 69.5175 11.12C70.5842 10.88 71.7308 10.76 72.9575 10.76C74.1842 10.76 75.2908 10.8933 76.2775 11.16C77.2642 11.4 78.0908 11.8533 78.7575 12.52C79.3708 13.1333 79.7708 13.8933 79.9575 14.8C80.1442 15.68 80.2375 16.8 80.2375 18.16V29.04C80.2375 29.7067 80.3042 30.1733 80.4375 30.44C80.5708 30.68 80.7975 30.8 81.1175 30.8C81.3575 30.8 81.5842 30.7333 81.7975 30.6C82.0375 30.4667 82.2908 30.3067 82.5575 30.12L82.9575 30.8C82.3975 31.28 81.7442 31.6533 80.9975 31.92C80.2775 32.16 79.4642 32.28 78.5575 32.28C77.5708 32.28 76.7842 32.1467 76.1975 31.88C75.6108 31.5867 75.1842 31.2 74.9175 30.72C74.6775 30.24 74.5575 29.68 74.5575 29.04C73.9175 30.0533 73.1442 30.8533 72.2375 31.44C71.3308 32 70.2242 32.28 68.9175 32.28ZM71.7575 29.72C72.2908 29.72 72.7708 29.6 73.1975 29.36C73.6508 29.0933 74.0775 28.6667 74.4775 28.08V19.88C74.2375 20.28 73.9042 20.64 73.4775 20.96C73.0508 21.28 72.5975 21.6133 72.1175 21.96C71.6375 22.28 71.1708 22.64 70.7175 23.04C70.2908 23.44 69.9442 23.9333 69.6775 24.52C69.4108 25.1067 69.2775 25.8133 69.2775 26.64C69.2775 27.68 69.5042 28.4533 69.9575 28.96C70.4108 29.4667 71.0108 29.72 71.7575 29.72Z" fill="black"/>
<path d="M91.8606 39.52C90.2073 39.52 88.7273 39.3733 87.4206 39.08C86.1406 38.8133 85.1273 38.3867 84.3806 37.8C83.6606 37.24 83.3006 36.5467 83.3006 35.72C83.3006 34.8933 83.674 34.1467 84.4206 33.48C85.1673 32.84 86.274 32.3333 87.7406 31.96L88.1006 32.6C87.594 33 87.2206 33.4267 86.9806 33.88C86.7673 34.36 86.6606 34.8533 86.6606 35.36C86.6606 36.48 87.1673 37.3333 88.1806 37.92C89.2206 38.5333 90.6206 38.84 92.3806 38.84C93.5806 38.84 94.6473 38.68 95.5806 38.36C96.5406 38.04 97.2873 37.56 97.8206 36.92C98.3806 36.28 98.6606 35.4933 98.6606 34.56C98.6606 33.76 98.3673 33.08 97.7806 32.52C97.194 31.9867 96.0206 31.72 94.2606 31.72H91.7806C90.6873 31.72 89.7273 31.6 88.9006 31.36C88.1006 31.12 87.474 30.7467 87.0206 30.24C86.5673 29.7067 86.3406 29.04 86.3406 28.24C86.3406 27.12 86.7806 26.1333 87.6606 25.28C88.5406 24.4267 89.8473 23.6267 91.5806 22.88L91.9806 23.2C91.474 23.52 90.994 23.8667 90.5406 24.24C90.114 24.5867 89.9006 25.04 89.9006 25.6C89.9006 26.4533 90.434 26.88 91.5006 26.88H95.8606C97.3273 26.88 98.634 27.0533 99.7806 27.4C100.954 27.7467 101.874 28.32 102.541 29.12C103.234 29.8933 103.581 30.9067 103.581 32.16C103.581 33.4667 103.154 34.68 102.301 35.8C101.474 36.92 100.194 37.8133 98.4606 38.48C96.7273 39.1733 94.5273 39.52 91.8606 39.52ZM92.2606 23.48C90.7406 23.48 89.3806 23.2533 88.1806 22.8C86.9806 22.3467 86.034 21.6533 85.3406 20.72C84.6473 19.7867 84.3006 18.5867 84.3006 17.12C84.3006 15.6533 84.6473 14.4533 85.3406 13.52C86.034 12.56 86.9806 11.8667 88.1806 11.44C89.3806 10.9867 90.7406 10.76 92.2606 10.76C93.7806 10.76 95.1406 10.9867 96.3406 11.44C97.5406 11.8667 98.4873 12.56 99.1806 13.52C99.874 14.4533 100.221 15.6533 100.221 17.12C100.221 18.5867 99.874 19.7867 99.1806 20.72C98.4873 21.6533 97.5406 22.3467 96.3406 22.8C95.1406 23.2533 93.7806 23.48 92.2606 23.48ZM92.2606 22.76C92.9806 22.76 93.5406 22.36 93.9406 21.56C94.3406 20.7333 94.5406 19.2533 94.5406 17.12C94.5406 14.9867 94.3406 13.52 93.9406 12.72C93.5406 11.8933 92.9806 11.48 92.2606 11.48C91.5673 11.48 91.0073 11.8933 90.5806 12.72C90.1806 13.52 89.9806 14.9867 89.9806 17.12C89.9806 19.2533 90.1806 20.7333 90.5806 21.56C91.0073 22.36 91.5673 22.76 92.2606 22.76ZM98.5006 14.2L97.7006 13.92C98.1006 12.88 98.7406 12.0133 99.6206 11.32C100.527 10.6267 101.501 10.28 102.541 10.28C103.394 10.28 104.034 10.52 104.461 11C104.914 11.4533 105.141 12.0533 105.141 12.8C105.141 13.6 104.927 14.2 104.501 14.6C104.074 14.9733 103.594 15.16 103.061 15.16C102.607 15.16 102.181 15 101.781 14.68C101.407 14.36 101.194 13.88 101.141 13.24C101.087 12.5733 101.314 11.72 101.821 10.68L102.101 10.92C101.087 11.2933 100.327 11.7333 99.8206 12.24C99.314 12.72 98.874 13.3733 98.5006 14.2Z" fill="black"/>
<path d="M115.905 10.76C117.852 10.76 119.558 11.12 121.025 11.84C122.492 12.56 123.638 13.72 124.465 15.32C125.292 16.92 125.705 19.04 125.705 21.68C125.705 24.32 125.292 26.44 124.465 28.04C123.638 29.6133 122.492 30.76 121.025 31.48C119.558 32.2 117.852 32.56 115.905 32.56C114.012 32.56 112.318 32.2 110.825 31.48C109.358 30.76 108.198 29.6133 107.345 28.04C106.518 26.44 106.105 24.32 106.105 21.68C106.105 19.04 106.518 16.92 107.345 15.32C108.198 13.72 109.358 12.56 110.825 11.84C112.318 11.12 114.012 10.76 115.905 10.76ZM115.905 11.56C114.838 11.56 113.945 12.36 113.225 13.96C112.505 15.5333 112.145 18.1067 112.145 21.68C112.145 25.2533 112.505 27.8267 113.225 29.4C113.945 30.9733 114.838 31.76 115.905 31.76C116.998 31.76 117.892 30.9733 118.585 29.4C119.305 27.8267 119.665 25.2533 119.665 21.68C119.665 18.1067 119.305 15.5333 118.585 13.96C117.892 12.36 116.998 11.56 115.905 11.56Z" fill="black"/>
</svg>
