<svg width="159" height="30" viewBox="0 0 159 30" fill="none" xmlns="http://www.w3.org/2000/svg">
<path d="M24.68 0.679997C24.5733 2.04 24.4933 3.34666 24.44 4.6C24.4133 5.85333 24.4 6.81333 24.4 7.48C24.4 8.06666 24.4133 8.62666 24.44 9.16C24.4667 9.69333 24.4933 10.1467 24.52 10.52H23.6C23.1733 8.28 22.6267 6.50666 21.96 5.2C21.32 3.89333 20.5467 2.97333 19.64 2.44C18.7333 1.88 17.6667 1.6 16.44 1.6H15.52V24.44C15.52 25.5067 15.6267 26.3067 15.84 26.84C16.08 27.3733 16.5067 27.7333 17.12 27.92C17.7333 28.08 18.6267 28.1733 19.8 28.2V29C18.9733 28.9733 17.8667 28.9467 16.48 28.92C15.12 28.8933 13.6933 28.88 12.2 28.88C10.7333 28.88 9.34667 28.8933 8.04 28.92C6.73333 28.9467 5.68 28.9733 4.88 29V28.2C6.08 28.1733 6.98667 28.08 7.6 27.92C8.21333 27.7333 8.62667 27.3733 8.84 26.84C9.05333 26.3067 9.16 25.5067 9.16 24.44V1.6H8.28C7.05333 1.6 5.98667 1.88 5.08 2.44C4.17333 2.97333 3.4 3.89333 2.76 5.2C2.12 6.48 1.56 8.25333 1.08 10.52H0.16C0.213333 10.1467 0.24 9.69333 0.24 9.16C0.266667 8.62666 0.28 8.06666 0.28 7.48C0.28 6.81333 0.253333 5.85333 0.2 4.6C0.173333 3.34666 0.106667 2.04 0 0.679997C1.22667 0.706664 2.56 0.73333 4 0.759996C5.46667 0.786663 6.93333 0.799996 8.4 0.799996C9.86667 0.799996 11.1867 0.799996 12.36 0.799996C13.56 0.799996 14.88 0.799996 16.32 0.799996C17.7867 0.799996 19.2533 0.786663 20.72 0.759996C22.1867 0.73333 23.5067 0.706664 24.68 0.679997Z" fill="black"/>
<path d="M44.0387 29V28.2C44.8921 28.1467 45.5321 28.04 45.9588 27.88C46.3854 27.72 46.6654 27.4 46.7988 26.92C46.9588 26.44 47.0388 25.72 47.0388 24.76V4.92C47.0388 3.93333 46.9588 3.21333 46.7988 2.76C46.6654 2.28 46.3721 1.96 45.9188 1.8C45.4921 1.61333 44.8654 1.50666 44.0387 1.48V0.679997C44.7587 0.706664 45.6921 0.73333 46.8387 0.759996C48.0121 0.786663 49.1721 0.799996 50.3187 0.799996C51.5454 0.799996 52.6921 0.786663 53.7588 0.759996C54.8521 0.73333 55.7321 0.706664 56.3988 0.679997V1.48C55.5454 1.50666 54.8921 1.61333 54.4388 1.8C54.0121 1.96 53.7321 2.28 53.5988 2.76C53.4654 3.21333 53.3988 3.93333 53.3988 4.92V24.76C53.3988 25.72 53.4654 26.44 53.5988 26.92C53.7588 27.4 54.0521 27.72 54.4788 27.88C54.9054 28.04 55.5454 28.1467 56.3988 28.2V29C55.7321 28.9467 54.8521 28.92 53.7588 28.92C52.6921 28.8933 51.5454 28.88 50.3187 28.88C49.1721 28.88 48.0121 28.8933 46.8387 28.92C45.6921 28.92 44.7587 28.9467 44.0387 29ZM27.0788 29V28.2C27.9321 28.1467 28.5721 28.04 28.9988 27.88C29.4254 27.72 29.7054 27.4 29.8388 26.92C29.9988 26.44 30.0788 25.72 30.0788 24.76V4.92C30.0788 3.93333 29.9988 3.21333 29.8388 2.76C29.7054 2.28 29.4121 1.96 28.9587 1.8C28.5321 1.61333 27.9054 1.50666 27.0788 1.48V0.679997C27.7721 0.706664 28.6654 0.73333 29.7588 0.759996C30.8788 0.786663 32.0921 0.799996 33.3988 0.799996C34.5188 0.799996 35.6254 0.786663 36.7188 0.759996C37.8121 0.73333 38.7188 0.706664 39.4388 0.679997V1.48C38.5854 1.50666 37.9321 1.61333 37.4787 1.8C37.0521 1.96 36.7721 2.28 36.6387 2.76C36.5054 3.21333 36.4388 3.93333 36.4388 4.92V24.76C36.4388 25.72 36.5054 26.44 36.6387 26.92C36.7987 27.4 37.0921 27.72 37.5187 27.88C37.9454 28.04 38.5854 28.1467 39.4388 28.2V29C38.7188 28.9467 37.8121 28.92 36.7188 28.92C35.6254 28.8933 34.5188 28.88 33.3988 28.88C32.0921 28.88 30.8788 28.8933 29.7588 28.92C28.6654 28.92 27.7721 28.9467 27.0788 29ZM33.8387 15.16V14.36H49.6388V15.16H33.8387Z" fill="black"/>
<path d="M71.4309 0.679997V1.48C70.5776 1.50666 69.9243 1.61333 69.4709 1.8C69.0443 1.96 68.7643 2.28 68.6309 2.76C68.4976 3.21333 68.4309 3.93333 68.4309 4.92V24.76C68.4309 25.72 68.4976 26.44 68.6309 26.92C68.7909 27.4 69.0843 27.72 69.5109 27.88C69.9376 28.04 70.5776 28.1467 71.4309 28.2V29C70.7109 28.9467 69.8043 28.92 68.7109 28.92C67.6176 28.8933 66.5109 28.88 65.3909 28.88C64.0843 28.88 62.8709 28.8933 61.7509 28.92C60.6576 28.92 59.7643 28.9467 59.0709 29V28.2C59.9243 28.1467 60.5643 28.04 60.9909 27.88C61.4176 27.72 61.6976 27.4 61.8309 26.92C61.9909 26.44 62.0709 25.72 62.0709 24.76V4.92C62.0709 3.93333 61.9909 3.21333 61.8309 2.76C61.6976 2.28 61.4043 1.96 60.9509 1.8C60.5243 1.61333 59.8976 1.50666 59.0709 1.48V0.679997C59.7643 0.706664 60.6576 0.73333 61.7509 0.759996C62.8709 0.786663 64.0843 0.799996 65.3909 0.799996C66.5109 0.799996 67.6176 0.786663 68.7109 0.759996C69.8043 0.73333 70.7109 0.706664 71.4309 0.679997Z" fill="black"/>
<path d="M87.47 0.599996L97.19 25.64C97.5633 26.6 97.9767 27.2667 98.43 27.64C98.91 27.9867 99.3367 28.1733 99.71 28.2V29C98.91 28.9467 97.9633 28.92 96.87 28.92C95.8033 28.8933 94.7233 28.88 93.63 28.88C92.4033 28.88 91.2433 28.8933 90.15 28.92C89.0567 28.92 88.19 28.9467 87.55 29V28.2C88.91 28.1467 89.7633 27.92 90.11 27.52C90.4833 27.0933 90.4033 26.2 89.87 24.84L83.07 6.24L83.79 5.2L77.71 21.04C77.1233 22.5067 76.7633 23.7067 76.63 24.64C76.5233 25.5733 76.59 26.2933 76.83 26.8C77.0967 27.3067 77.51 27.6667 78.07 27.88C78.6567 28.0667 79.35 28.1733 80.15 28.2V29C79.27 28.9467 78.43 28.92 77.63 28.92C76.83 28.8933 76.0167 28.88 75.19 28.88C74.6033 28.88 74.0433 28.8933 73.51 28.92C73.0033 28.92 72.55 28.9467 72.15 29V28.2C72.71 28.0933 73.2833 27.7333 73.87 27.12C74.4567 26.5067 75.03 25.4667 75.59 24L84.71 0.599996C85.1367 0.626662 85.59 0.639996 86.07 0.639996C86.5767 0.639996 87.0433 0.626662 87.47 0.599996ZM90.27 17.48V18.28H78.35L78.75 17.48H90.27Z" fill="black"/>
<path d="M115.239 0.119995C117.052 0.119995 118.532 0.373329 119.679 0.879997C120.826 1.38666 121.852 2 122.759 2.72C123.079 2.96 123.346 3.08 123.559 3.08C124.066 3.08 124.399 2.28 124.559 0.679997H125.479C125.426 1.72 125.386 2.98666 125.359 4.48C125.332 5.94666 125.319 7.90666 125.319 10.36H124.399C124.212 8.76 123.919 7.37333 123.519 6.2C123.146 5 122.439 3.97333 121.399 3.12C120.759 2.50666 119.959 2.02666 118.999 1.68C118.066 1.33333 117.119 1.16 116.159 1.16C114.692 1.16 113.439 1.54666 112.399 2.32C111.359 3.06666 110.506 4.09333 109.839 5.4C109.172 6.70666 108.679 8.18666 108.359 9.84C108.039 11.4667 107.879 13.16 107.879 14.92C107.879 19.72 108.532 23.2267 109.839 25.44C111.172 27.6533 113.079 28.76 115.559 28.76C116.199 28.76 116.759 28.68 117.239 28.52C117.719 28.36 118.106 28.1733 118.399 27.96C118.772 27.6933 119.026 27.4133 119.159 27.12C119.292 26.8 119.359 26.3867 119.359 25.88V21.96C119.359 20.7333 119.252 19.8267 119.039 19.24C118.852 18.6267 118.466 18.2133 117.879 18C117.292 17.7867 116.439 17.6667 115.319 17.64V16.84C115.879 16.8667 116.546 16.8933 117.319 16.92C118.119 16.92 118.946 16.9333 119.799 16.96C120.652 16.96 121.439 16.96 122.159 16.96C123.279 16.96 124.306 16.9467 125.239 16.92C126.172 16.8933 126.932 16.8667 127.519 16.84V17.64C127.012 17.6667 126.626 17.76 126.359 17.92C126.119 18.08 125.946 18.4 125.839 18.88C125.759 19.36 125.719 20.0933 125.719 21.08V29H124.919C124.892 28.5467 124.786 28.0533 124.599 27.52C124.439 26.9867 124.159 26.72 123.759 26.72C123.572 26.72 123.319 26.7733 122.999 26.88C122.706 26.96 122.239 27.1867 121.599 27.56C120.612 28.12 119.572 28.6 118.479 29C117.386 29.3733 116.239 29.56 115.039 29.56C111.946 29.56 109.332 28.9867 107.199 27.84C105.066 26.6933 103.452 25.0533 102.359 22.92C101.292 20.76 100.759 18.1733 100.759 15.16C100.759 12.12 101.372 9.48 102.599 7.24C103.852 5 105.559 3.25333 107.719 2C109.906 0.746662 112.412 0.119995 115.239 0.119995Z" fill="black"/>
<path d="M144.333 0.119995C147.16 0.119995 149.626 0.693329 151.733 1.84C153.866 2.98666 155.52 4.64 156.693 6.8C157.866 8.93333 158.453 11.5333 158.453 14.6C158.453 17.5867 157.853 20.2 156.653 22.44C155.453 24.68 153.773 26.4267 151.613 27.68C149.48 28.9333 147.04 29.56 144.293 29.56C141.466 29.56 138.986 28.9867 136.853 27.84C134.746 26.6933 133.106 25.04 131.933 22.88C130.76 20.72 130.173 18.12 130.173 15.08C130.173 12.0933 130.773 9.48 131.973 7.24C133.2 5 134.866 3.25333 136.973 2C139.106 0.746662 141.56 0.119995 144.333 0.119995ZM144.173 0.839995C142.68 0.839995 141.373 1.44 140.253 2.64C139.16 3.84 138.306 5.49333 137.693 7.6C137.106 9.70666 136.813 12.1467 136.813 14.92C136.813 17.7467 137.146 20.2133 137.813 22.32C138.506 24.4 139.426 26.0133 140.573 27.16C141.746 28.28 143.04 28.84 144.453 28.84C145.946 28.84 147.24 28.24 148.333 27.04C149.453 25.84 150.306 24.1867 150.893 22.08C151.506 19.9467 151.813 17.5067 151.813 14.76C151.813 11.9067 151.466 9.44 150.773 7.36C150.106 5.28 149.186 3.68 148.013 2.56C146.866 1.41333 145.586 0.839995 144.173 0.839995Z" fill="black"/>
</svg>
